<svg xmlns="http://www.w3.org/2000/svg" xmlns:xlink="http://www.w3.org/1999/xlink" viewBox="0 0 294.9 65.9"><defs><style>.cls-1{fill:none;}.cls-2{clip-path:url(#clip-path);}.cls-3{fill:url(#linear-gradient);}.cls-4{fill:#001464;}</style><clipPath id="clip-path"><path class="cls-1" d="M13.9,22.7l13.9,8L13.9,38.8ZM0,1.7V59.9a1.7,1.7,0,0,0,2.5,1.5l11.4-6.6,13.9-8,12.7-7.3a2.3,2.3,0,0,0,1.1-1.9V24.1a2.1,2.1,0,0,0-1.1-1.9L27.8,14.7,13.9,6.8,2.5.2,1.7,0A1.7,1.7,0,0,0,0,1.7"/></clipPath><linearGradient id="linear-gradient" x1="-879.73" y1="649.48" x2="-879.3" y2="649.48" gradientTransform="translate(-87745.6 -118821.7) rotate(-90) scale(135.13)" gradientUnits="userSpaceOnUse"><stop offset="0" stop-color="red"/><stop offset="0.06" stop-color="#ec020c"/><stop offset="0.17" stop-color="#bc082c"/><stop offset="0.34" stop-color="#6f1160"/><stop offset="0.54" stop-color="#051da6"/><stop offset="0.55" stop-color="#001ea9"/><stop offset="1" stop-color="#00c8ff"/></linearGradient></defs><title>Asset 1</title><g id="Layer_2" data-name="Layer 2"><g id="Layer_1-2" data-name="Layer 1"><g class="cls-2"><rect class="cls-3" width="41.6" height="62.03"/></g><path class="cls-4" d="M106.1,20.9a.8.8,0,0,1,.7.8v7.9a.9.9,0,0,1-.3.5H106a9,9,0,0,0-3.4-.5,9.4,9.4,0,0,0-4.5,2.1V51.2a.6.6,0,0,1-.3.6.9.9,0,0,1-.6.3H89.7a.9.9,0,0,1-.9-.9V21.6a.9.9,0,0,1,.9-.9h6a1.2,1.2,0,0,1,1.1.7,18,18,0,0,1,1,3.3h.1c1.4-1.8,2.8-3.6,5.4-4a12,12,0,0,1,2.8.3M294.9,31.4c0-7.4-3.3-11.2-9.7-11.2-3.6,0-6,1.7-8,3.3l-.6-2.1a1.2,1.2,0,0,0-1.1-.7h-6a.9.9,0,0,0-.9.9V51.2a.9.9,0,0,0,.9.9H277a.9.9,0,0,0,.9-.9V30.3a6.2,6.2,0,0,1,3.9-1.7c2.7,0,3.9,1.5,3.9,5V51.2a.9.9,0,0,0,.9.9H294a.9.9,0,0,0,.9-.9V31.4M232.7,20.7h-7.5a.8.8,0,0,0-.8.9V51.2a.8.8,0,0,0,.8.9h7.5a.9.9,0,0,0,.9-.9V21.6a.9.9,0,0,0-.9-.9M231.6,7a5.2,5.2,0,0,0-2-.6,4.8,4.8,0,0,0-2.7.4,5,5,0,0,0-3,5.4,4.9,4.9,0,0,0,2.1,3.7,4.7,4.7,0,0,0,3,1h.1a6.5,6.5,0,0,0,2.1-.4,5.2,5.2,0,0,0,3.1-5.1A5.2,5.2,0,0,0,231.6,7M79.2,29.9A9.5,9.5,0,0,1,83.8,33a10.8,10.8,0,0,1,2.1,6.8c0,7.6-5,12.3-13,12.3H57.1l-.6-.2a.7.7,0,0,1-.2-.6v-41a.9.9,0,0,1,.9-.9H72.3c7.6,0,12.5,4.2,12.5,10.8s-3.5,8.9-5.6,9.6h0m-13,14.4h4.6c2.9,0,4.5-1.9,4.5-5.4s-1.8-5.2-5-5.2H66.2V44.3Zm4.4-17.7c2.7,0,4.2-1.8,4.2-5s-1.6-4.1-4.5-4.1H66.2v9.1h4.4m51.1-6.5a13.5,13.5,0,0,1,10.7,4.6c2.4,2.8,3.7,6.9,3.7,11.8,0,9.5-6.1,16.4-14.4,16.4-4.5,0-8.3-1.6-10.8-4.6s-3.7-6.9-3.7-11.8c0-9.5,6.1-16.4,14.5-16.4m4.8,16.4c0-5.8-1.6-8.5-4.8-8.5s-4.9,2.6-4.9,8.5,1.6,8.6,4.9,8.6,4.8-2.7,4.8-8.6M265.3,20.7a1,1,0,0,1,.6.9V28a.5.5,0,0,1-.3.5.4.4,0,0,1-.5.1,9.6,9.6,0,0,0-3.4-.1,7.8,7.8,0,0,1,.6,3.1c0,6.9-4.9,11.4-12.5,11.4h-.7a3.3,3.3,0,0,0-2.2.5.8.8,0,0,0-.2.6c0,.6.3,1.2,2.7,1.3l4.7.2c7.2.3,10.8,3.5,10.8,9.4a9.5,9.5,0,0,1-3.5,7.4c-2.7,2.3-6.7,3.5-11.9,3.5-8.2,0-13.3-3.2-13.3-8.1a7.4,7.4,0,0,1,4.9-6.7,6.3,6.3,0,0,1-2.6-5c0-1.9,1.2-3.7,3.3-5.1-2.9-2-4.5-5.3-4.5-9.4,0-7,4.9-11.5,12.5-11.5a13.1,13.1,0,0,1,8.2,2.8,7.7,7.7,0,0,1,5.6-2.4l1.7.2M246.7,52.9a3.8,3.8,0,0,0-2.4,3.3c0,2.3,1.8,3.3,5.4,3.3s6.2-1.1,6.2-3.4-1.2-2.8-3.9-2.9l-5.3-.3m6.7-21.6c0-2.7-1.4-4.4-3.6-4.4s-3.6,1.7-3.6,4.4,1.3,4.5,3.6,4.5,3.6-1.7,3.6-4.5M150.9,20.2c8.2,0,11.8,3.9,11.8,11.7V51.2a.9.9,0,0,1-.9.9h-5.7a1.2,1.2,0,0,1-1.1-.7l-.6-1.7a9.2,9.2,0,0,1-6.9,2.9c-5.8,0-9.6-4-9.6-10.1s4.8-10.1,12.3-10.1h3.3v-.6c0-2.5-.8-4.1-4.7-4.1a23.4,23.4,0,0,0-7.9,2h-.6a.7.7,0,0,1-.3-.6V23.1a1,1,0,0,1,.7-1,31.3,31.3,0,0,1,10.1-1.9m-4,21.7c0,1.4,1.1,2.8,3.3,2.8a4.6,4.6,0,0,0,3.3-1.3V39.2h-2.1c-2.6-.1-4.5,1.1-4.5,2.8M193.2,8.2a.9.9,0,0,1,.9.9V51.2a.9.9,0,0,1-.9.9h-6.1a1.2,1.2,0,0,1-1.1-.7,8.4,8.4,0,0,1-.5-1.7,11.2,11.2,0,0,1-7.6,3.2c-7.3,0-11.8-6.3-11.8-16.4s4.7-16.3,11.8-16.3a12.2,12.2,0,0,1,6.6,2V9.1a.9.9,0,0,1,.9-.9h7.8m-13,36.5a5.4,5.4,0,0,0,4.4-2.9V31.1a5.3,5.3,0,0,0-4.4-2.8c-3,0-4.4,2.6-4.4,8.1s1.4,8.3,4.4,8.3m32.6-11.9c-3.2-1.4-5.7-2.2-5.7-3.6s.7-1.5,3-1.5a20.2,20.2,0,0,1,8.9,2.4.6.6,0,0,0,.9-.6V23a1,1,0,0,0-.6-1,23.5,23.5,0,0,0-9.2-1.9c-6.8,0-12.4,3.1-12.4,9.5s3.1,8,8.9,10.3c3.1,1.3,5.4,2,5.3,3.4s-.6,1.6-3.5,1.6a22.3,22.3,0,0,1-9.3-2.5.6.6,0,0,0-.9.5v6.8a1.1,1.1,0,0,0,.6,1,23.2,23.2,0,0,0,9.6,1.9c6.9,0,12.9-3.2,12.9-9.6s-2.9-7.7-8.5-10.2"/></g></g></svg>