<svg xmlns="http://www.w3.org/2000/svg" xmlns:xlink="http://www.w3.org/1999/xlink" width="1200" height="1200" viewBox="0 0 1200 1200">
  <defs>
    <rect id="safari-pinned-tab-a" width="1200" height="1200"/>
    <path id="safari-pinned-tab-b" d="M200,32.8023179 L200,288.034185 L200,599.998058 L200,911.965815 L200,1167.19768 C200,1186.23655 215.499921,1199.88346 232.454653,1200 L232.876393,1200 C238.242941,1199.96504 243.737171,1198.57432 248.929606,1195.56757 L469.093489,1067.94387 L738.183108,911.965815 L985.756237,768.449847 C999.070073,760.734854 1007.27273,746.474159 1007.27273,731.040287 L1007.27273,468.955828 C1007.27273,453.525841 999.070073,439.265146 985.756237,431.550153 L738.183108,288.034185 L469.093489,132.056134 L248.929606,4.43631537 C243.675265,1.39071883 238.099781,0 232.671327,0 C215.631473,0 200,13.6818763 200,32.8023179 Z M469.093489,444.020006 L738.183108,599.998058 L469.093489,755.983879 L469.093489,444.020006 Z"/>
  </defs>
  <g fill="none" fill-rule="evenodd">
    <use fill="#624949" fill-opacity="0" xlink:href="#safari-pinned-tab-a"/>
    <rect width="1199" height="1199" x=".5" y=".5" stroke="#FFF"/>
    <use fill="#000" xlink:href="#safari-pinned-tab-b"/>
  </g>
</svg>
